# xmcd
#
# Track frame offsets:
#	150
#	14890
#	28502
#	37514
#	49349
#	63956
#	76348
#	88888
#	103934
#	118417
#	134110
#	147195
#	162990
#	176953
#	191143
#	202198
#	220004
#	232882
#	243604
#	255411
#	266618
#	276566
#	288810
#	301220
#	317086
#
# Disc length: 4422 seconds
#
# Revision: 1
# Processed by: cddbd v1.4PL0 Copyright (c) Steve Scherf et al.
# Submitted via: audiograbber 1.80
#
DISCID=81114419
DTITLE=Los Originales Y Los Razos - Los Originales Y Los Razos
DYEAR=1900
DGENRE=
TTITLE0=El Cara De Chango
TTITLE1=La Momia
TTITLE2=El Rey De La Mota
TTITLE3=Mi Cariñito
TTITLE4=El Poca Madre
TTITLE5=Mas Chingon Que Ese Buey
TTITLE6=El Pie De Mi Sepultura
TTITLE7=Cuando Me Carge
TTITLE8=El Jardinero
TTITLE9=Con El Polvo Hasta La Muerte
TTITLE10=Sancudo Boludo
TTITLE11=De Parranda Con La Banda
TTITLE12=El Charlaman
TTITLE13=Olfateando El Animal
TTITLE14=La Peda
TTITLE15=El Melon
TTITLE16=Una Paloma En Su Nido
TTITLE17=El Moreno
TTITLE18=El Encabronado
TTITLE19=El Huevudo
TTITLE20=Carga Fina
TTITLE21=Michoacan Hasta El Tronco
TTITLE22=La Raza Michoacana
TTITLE23=Entre Lujos Y Placeres
TTITLE24=Entre Pericos Y Amigos
EXTD=
EXTT0=
EXTT1=
EXTT2=
EXTT3=
EXTT4=
EXTT5=
EXTT6=
EXTT7=
EXTT8=
EXTT9=
EXTT10=
EXTT11=
EXTT12=
EXTT13=
EXTT14=
EXTT15=
EXTT16=
EXTT17=
EXTT18=
EXTT19=
EXTT20=
EXTT21=
EXTT22=
EXTT23=
EXTT24=
PLAYORDER=
